<svg xmlns="http://www.w3.org/2000/svg" data-name="Layer 1" viewBox="0 0 110 137.5" x="0px" y="0px"><path d="M56.966,102.994a1,1,0,0,1-.026-2,42.867,42.867,0,0,0,6.791-.725,1,1,0,1,1,.371,1.964,44.852,44.852,0,0,1-7.108.761Zm-6.979-.366a.991.991,0,0,1-.133-.009,44.326,44.326,0,0,1-6.992-1.509A1,1,0,1,1,43.44,99.2a42.554,42.554,0,0,0,6.676,1.441,1,1,0,0,1-.129,1.991ZM70.664,100.4a1,1,0,0,1-.342-1.94,42.666,42.666,0,0,0,6.215-2.84,1,1,0,0,1,.974,1.746,44.739,44.739,0,0,1-6.506,2.975A1.02,1.02,0,0,1,70.664,100.4ZM36.643,98.6a1,1,0,0,1-.438-.1,45.01,45.01,0,0,1-6.154-3.643A1,1,0,1,1,31.2,93.222a43.061,43.061,0,0,0,5.879,3.48,1,1,0,0,1-.44,1.9Zm46.2-4.991a1,1,0,0,1-.62-1.785,43.007,43.007,0,0,0,5.008-4.646A1,1,0,0,1,88.7,88.532,45.188,45.188,0,0,1,83.459,93.4,1,1,0,0,1,82.84,93.61ZM25.254,90.566a.994.994,0,0,1-.7-.285,45.135,45.135,0,0,1-4.7-5.388A1,1,0,0,1,21.461,83.7a42.99,42.99,0,0,0,4.492,5.151,1,1,0,0,1-.7,1.714Zm67.019-7.214A1,1,0,0,1,91.44,81.8a42.893,42.893,0,0,0,3.3-5.977,1,1,0,0,1,1.823.824A44.94,44.94,0,0,1,93.108,82.9,1,1,0,0,1,92.273,83.352Zm-77.753-9.6a1,1,0,0,1-.942-.664c-.345-.967-.659-1.961-.935-2.953A1,1,0,1,1,14.57,69.6c.263.946.563,1.894.892,2.816a1,1,0,0,1-.942,1.336Zm83.49-3.1a.978.978,0,0,1-.26-.034,1,1,0,0,1-.7-1.225,42.831,42.831,0,0,0,1.241-6.716,1,1,0,1,1,1.989.205,44.668,44.668,0,0,1-1.3,7.03A1,1,0,0,1,98.01,70.653ZM12.293,64a1,1,0,0,1-.993-.893,45.269,45.269,0,0,1-.258-4.831q0-1.166.059-2.318a1.012,1.012,0,0,1,1.05-.947,1,1,0,0,1,.947,1.051q-.056,1.1-.056,2.214a43.383,43.383,0,0,0,.246,4.617,1,1,0,0,1-1,1.107ZM99.44,56.793a1,1,0,0,1-1-.944,42.682,42.682,0,0,0-.927-6.766,1,1,0,0,1,1.953-.43,44.677,44.677,0,0,1,.971,7.084,1,1,0,0,1-.942,1.054ZM13.015,50.078a1.015,1.015,0,0,1-.211-.022,1,1,0,0,1-.767-1.188A44.306,44.306,0,0,1,14.1,42.02a1,1,0,1,1,1.862.728,42.5,42.5,0,0,0-1.969,6.54A1,1,0,0,1,13.015,50.078Zm83.429-6.9a1,1,0,0,1-.93-.631,42.654,42.654,0,0,0-3.024-6.127A1,1,0,0,1,94.207,35.4a44.67,44.67,0,0,1,3.166,6.414,1,1,0,0,1-.929,1.369ZM18.093,37.1a1,1,0,0,1-.86-1.509,45.1,45.1,0,0,1,4.116-5.847,1,1,0,1,1,1.539,1.277,43.045,43.045,0,0,0-3.933,5.587A1,1,0,0,1,18.093,37.1Zm71.2-5.891a1,1,0,0,1-.767-.357,43.147,43.147,0,0,0-4.793-4.871,1,1,0,1,1,1.31-1.511,45.2,45.2,0,0,1,5.015,5.1,1,1,0,0,1-.765,1.643ZM27,26.378a1,1,0,0,1-.659-1.753,45.024,45.024,0,0,1,5.739-4.267,1,1,0,0,1,1.062,1.7,42.967,42.967,0,0,0-5.484,4.077A1,1,0,0,1,27,26.378Zm51.76-4.291a.992.992,0,0,1-.526-.15,42.647,42.647,0,0,0-6.073-3.12,1,1,0,0,1,.768-1.846,44.779,44.779,0,0,1,6.359,3.266,1,1,0,0,1-.528,1.85ZM38.815,18.982a1,1,0,0,1-.39-1.92,44.265,44.265,0,0,1,6.8-2.24,1,1,0,1,1,.47,1.944A42.5,42.5,0,0,0,39.2,18.9.99.99,0,0,1,38.815,18.982ZM65.9,16.738a1.018,1.018,0,0,1-.231-.027,42.8,42.8,0,0,0-6.751-1.036,1,1,0,1,1,.144-1.994,44.677,44.677,0,0,1,7.068,1.085,1,1,0,0,1-.23,1.972Z"/><path d="M52.863,91.26c-.03,0-.061,0-.091,0a32.887,32.887,0,0,1-7.062-1.429,1,1,0,1,1,.609-1.9,31.064,31.064,0,0,0,6.633,1.341,1,1,0,0,1-.089,2Zm6.981-.126a1,1,0,0,1-.124-1.992A31.042,31.042,0,0,0,66.3,87.561a1,1,0,1,1,.678,1.88,32.929,32.929,0,0,1-7,1.685A1.113,1.113,0,0,1,59.844,91.134Zm-20.211-4.1a.993.993,0,0,1-.5-.137,33.36,33.36,0,0,1-5.789-4.281,1,1,0,1,1,1.355-1.47,31.491,31.491,0,0,0,5.443,4.025,1,1,0,0,1-.5,1.863Zm33.276-.605a1,1,0,0,1-.536-1.845,31.535,31.535,0,0,0,5.3-4.219,1,1,0,0,1,1.407,1.422,33.536,33.536,0,0,1-5.632,4.486A.992.992,0,0,1,72.909,86.428ZM29.425,77.617a1,1,0,0,1-.82-.428,33.037,33.037,0,0,1-3.456-6.316A1,1,0,1,1,27,70.109a31.2,31.2,0,0,0,3.247,5.936,1,1,0,0,1-.819,1.572Zm56.163-6.388a1,1,0,0,1-.927-1.376,30.588,30.588,0,0,0,1.783-6.212,1,1,0,1,1,1.969.345,32.53,32.53,0,0,1-1.9,6.618A1,1,0,0,1,85.588,71.229ZM24.132,64.783a1,1,0,0,1-.985-.829,33.314,33.314,0,0,1-.487-5.679q0-.757.035-1.507a1,1,0,1,1,2,.089q-.033.707-.033,1.418a31.265,31.265,0,0,0,.458,5.337,1,1,0,0,1-.815,1.157A1.106,1.106,0,0,1,24.132,64.783Zm63.742-6.94a1,1,0,0,1-1-.956A30.993,30.993,0,0,0,85.842,50.2a1,1,0,1,1,1.931-.519,33.009,33.009,0,0,1,1.1,7.118,1,1,0,0,1-.955,1.043ZM24.766,50.912a1.022,1.022,0,0,1-.261-.034,1,1,0,0,1-.7-1.227,33.011,33.011,0,0,1,2.63-6.708,1,1,0,0,1,1.772.93,30.946,30.946,0,0,0-2.471,6.3A1,1,0,0,1,24.766,50.912Zm59.5-6.475a1,1,0,0,1-.887-.537A31.281,31.281,0,0,0,79.6,38.284a1,1,0,0,1,1.53-1.289,33.321,33.321,0,0,1,4.015,5.978,1,1,0,0,1-.885,1.464ZM31.215,38.613a1,1,0,0,1-.764-1.644A33.523,33.523,0,0,1,35.659,32a1,1,0,0,1,1.218,1.586,31.538,31.538,0,0,0-4.9,4.675A1,1,0,0,1,31.215,38.613Zm44.1-4.8a.989.989,0,0,1-.608-.207,31.32,31.32,0,0,0-5.784-3.516,1,1,0,0,1,.848-1.813,33.291,33.291,0,0,1,6.153,3.744,1,1,0,0,1-.609,1.792ZM42.237,30.167a1,1,0,0,1-.423-1.906,32.854,32.854,0,0,1,6.822-2.313,1,1,0,1,1,.43,1.953,30.932,30.932,0,0,0-6.406,2.172A1,1,0,0,1,42.237,30.167Zm20.5-2.234a1.018,1.018,0,0,1-.218-.024,31.154,31.154,0,0,0-6.726-.735,1,1,0,0,1,0-2h0a33.2,33.2,0,0,1,7.159.782,1,1,0,0,1-.216,1.977Z"/><path d="M59.439,14.566v.08a7.553,7.553,0,0,1-14.97,1.34,7.734,7.734,0,0,1-.13-1.42,7.55,7.55,0,1,1,15.1,0Z"/><path d="M24.659,78.786a7.564,7.564,0,1,1-7.56-7.56A7.52,7.52,0,0,1,24.659,78.786Z"/><path d="M77.289,58.266a21.51,21.51,0,1,1-21.51-21.48A21.535,21.535,0,0,1,77.289,58.266Z"/><path d="M90.089,76.036a7.556,7.556,0,0,1-7.56,7.54,7.584,7.584,0,0,1-7.55-7.54,7.555,7.555,0,1,1,15.11,0Z"/></svg>